<?xml version="1.0" encoding="UTF-8"?>
<svg enable-background="new 0 0 512 512" version="1.1" viewBox="0 0 512 512" xml:space="preserve" xmlns="http://www.w3.org/2000/svg">
<path d="m392.12 206.79c0 35.533-13.441 67.909-35.488 92.249-7.789 10.579-15.507 21.063-23.296 31.642-21.183 37.106-31.166 73.722-31.166 73.722h-92.334s-9.982-36.611-31.162-73.715c-7.835-10.632-15.599-21.167-23.435-31.798-21.967-24.323-35.353-56.64-35.353-92.1 0-75.888 61.317-137.38 136.82-137 75.171 0.376 135.42 61.343 135.42 137z" fill="#FFD681"/>
<path d="m256.7 69.786c-5.366-0.027-10.657 0.269-15.863 0.851 68.226 7.597 120.83 65.458 120.83 136.15 0 35.533-13.441 67.909-35.488 92.249-7.789 10.579-15.507 21.063-23.296 31.642-21.183 37.106-31.166 73.722-31.166 73.722h30.453s9.983-36.616 31.166-73.722c7.789-10.579 15.507-21.063 23.296-31.642 22.047-24.34 35.488-56.716 35.488-92.249 0-75.658-60.248-136.62-135.42-137z" fill="#FFBD2A"/>
<path d="m296.8 512h-81.609c-1.917 0-3.565-1.361-3.928-3.243l-6.022-31.257h101.51l-6.022 31.257c-0.363 1.882-2.01 3.243-3.928 3.243z" fill="#A85759"/>
<path d="m275.96 477.5-6.647 34.5h27.488c1.917 0 3.565-1.361 3.928-3.243l6.022-31.257h-30.791z" fill="#53575D"/>
<path d="m313.92 481.55h-115.84c-2.209 0-4-1.791-4-4v-83.358c0-2.209 1.791-4 4-4h115.84c2.209 0 4 1.791 4 4v83.358c1e-3 2.209-1.79 4-3.999 4z" fill="#FF993B"/>
<path d="m287.47 390.19v91.358h26.453c2.209 0 4-1.791 4-4v-83.358c0-2.209-1.791-4-4-4h-26.453z" fill="#FF7B48"/>
<g fill="#FF993B">
	<path d="m256 49.823c-4.143 0-7.5-3.358-7.5-7.5v-34.823c0-4.142 3.357-7.5 7.5-7.5s7.5 3.358 7.5 7.5v34.823c0 4.142-3.357 7.5-7.5 7.5z"/>
	<path d="m169.41 73.044c-2.592 0-5.113-1.346-6.503-3.752l-17.406-30.158c-2.07-3.587-0.841-8.174 2.747-10.245 3.586-2.07 8.173-0.842 10.245 2.747l17.406 30.158c2.07 3.587 0.841 8.174-2.747 10.245-1.18 0.681-2.469 1.005-3.742 1.005z"/>
	<path d="m106.01 136.34c-1.273 0-2.563-0.324-3.744-1.007l-30.147-17.412c-3.587-2.072-4.815-6.659-2.743-10.246 2.071-3.587 6.659-4.815 10.245-2.744l30.147 17.412c3.587 2.072 4.815 6.659 2.744 10.246-1.39 2.406-3.911 3.751-6.502 3.751z"/>
	<path d="m436.13 327c-1.273 0-2.563-0.324-3.744-1.007l-30.147-17.412c-3.587-2.072-4.815-6.659-2.744-10.246 2.072-3.588 6.66-4.815 10.246-2.744l30.147 17.412c3.587 2.072 4.815 6.659 2.743 10.246-1.389 2.406-3.91 3.751-6.501 3.751z"/>
	<path d="m82.812 222.76h-34.812c-4.143 0-7.5-3.358-7.5-7.5s3.357-7.5 7.5-7.5h34.812c4.143 0 7.5 3.358 7.5 7.5s-3.358 7.5-7.5 7.5z"/>
	<path d="m464 222.76h-34.812c-4.143 0-7.5-3.358-7.5-7.5s3.357-7.5 7.5-7.5h34.812c4.143 0 7.5 3.358 7.5 7.5s-3.357 7.5-7.5 7.5z"/>
	<path d="m75.874 326.56c-2.592 0-5.112-1.345-6.501-3.75-2.072-3.587-0.844-8.174 2.743-10.246l30.147-17.412c3.589-2.072 8.175-0.843 10.246 2.744s0.843 8.174-2.744 10.246l-30.147 17.412c-1.181 0.681-2.472 1.006-3.744 1.006z"/>
	<path d="m405.99 135.9c-2.592 0-5.112-1.345-6.501-3.75-2.072-3.587-0.844-8.174 2.743-10.246l30.147-17.412c3.589-2.071 8.175-0.843 10.245 2.744 2.072 3.587 0.844 8.174-2.743 10.246l-30.147 17.412c-1.181 0.681-2.471 1.006-3.744 1.006z"/>
	<path d="m342.59 72.281c-1.272 0-2.562-0.324-3.742-1.006-3.588-2.07-4.817-6.657-2.747-10.245l17.406-30.158c2.071-3.588 6.659-4.817 10.245-2.747 3.588 2.07 4.817 6.657 2.747 10.245l-17.406 30.159c-1.39 2.406-3.911 3.752-6.503 3.752z"/>
</g>
<g fill="#FF5A51">
	<path d="m216.41 253.7c-1.657 0-3.325-0.547-4.714-1.671l-42.634-34.513c-1.759-1.424-2.781-3.566-2.781-5.83s1.021-4.405 2.781-5.829l42.634-34.513c3.22-2.606 7.941-2.109 10.548 1.11s2.109 7.942-1.11 10.548l-35.433 28.684 35.433 28.683c3.22 2.606 3.717 7.329 1.11 10.548-1.481 1.832-3.648 2.782-5.834 2.783z"/>
	<path d="m295.59 253.7c-2.186 0-4.352-0.951-5.834-2.782-2.606-3.219-2.109-7.942 1.11-10.548l35.433-28.683-35.433-28.684c-3.22-2.606-3.717-7.329-1.11-10.548 2.605-3.219 7.328-3.718 10.548-1.11l42.634 34.513c1.76 1.424 2.781 3.566 2.781 5.829s-1.022 4.405-2.781 5.83l-42.634 34.513c-1.389 1.122-3.057 1.669-4.714 1.67z"/>
	<path d="m232.65 275.02c-0.965 0-1.945-0.187-2.891-0.583-3.821-1.598-5.624-5.992-4.025-9.813l46.693-111.66c1.598-3.822 5.994-5.625 9.813-4.026 3.821 1.598 5.624 5.992 4.025 9.813l-46.693 111.66c-1.202 2.877-3.988 4.609-6.922 4.609z"/>
	<path d="m182.91 447.1v-22.453c0-2.209 1.791-4 4-4h138.17c2.209 0 4 1.791 4 4v22.453c0 2.209-1.791 4-4 4h-138.17c-2.209 0-4-1.791-4-4z"/>
</g>
<path d="m298.63 420.64v30.453h26.453c2.209 0 4-1.791 4-4v-22.453c0-2.209-1.791-4-4-4h-26.453z" fill="#E75955"/>
</svg>
